<?xml version="1.0" standalone="no"?>
<!DOCTYPE svg PUBLIC "-//W3C//DTD SVG 20010904//EN"
 "http://www.w3.org/TR/2001/REC-SVG-20010904/DTD/svg10.dtd">
<svg version="1.0" xmlns="http://www.w3.org/2000/svg"
 width="328.000000pt" height="328.000000pt" viewBox="0 0 328.000000 328.000000"
 preserveAspectRatio="xMidYMid meet">
<metadata>
Created by potrace 1.14, written by Peter Selinger 2001-2017
</metadata>
<g transform="translate(0.000000,328.000000) scale(0.100000,-0.100000)"
fill="#000000" stroke="none">
<path d="M815 2645 c-205 -52 -419 -200 -576 -400 -126 -159 -174 -270 -178
-412 -6 -201 141 -285 384 -218 88 24 164 67 235 133 24 23 46 42 48 42 1 0 8
-13 13 -28 19 -54 96 -92 173 -86 29 3 44 -1 58 -16 10 -10 18 -21 18 -24 0
-2 -20 -15 -45 -27 -41 -20 -48 -21 -87 -9 -135 41 -307 30 -420 -26 -110 -55
-172 -141 -172 -239 0 -97 52 -159 142 -169 56 -6 60 -10 22 -26 -41 -17 -101
-6 -122 22 -36 46 -38 47 -61 39 -12 -4 -35 -26 -50 -48 -22 -30 -28 -51 -29
-91 0 -71 28 -114 98 -148 47 -23 63 -26 119 -22 39 4 78 14 100 26 l35 21 0
-24 c0 -36 46 -83 93 -96 118 -32 260 34 318 148 13 26 52 86 86 133 85 116
97 131 73 90 -70 -121 -80 -164 -51 -218 26 -48 110 -49 171 -2 25 19 25 19
52 -7 20 -19 40 -27 71 -29 52 -3 94 16 145 66 57 54 72 57 72 14 0 -51 36
-84 92 -84 24 0 54 7 66 16 20 14 26 14 66 -1 49 -19 96 -17 106 5 4 8 18 39
31 68 13 29 26 55 29 57 3 2 6 -19 6 -46 1 -27 7 -56 15 -65 18 -22 70 -44 95
-39 10 2 25 4 31 4 7 1 31 17 53 37 32 30 41 33 46 20 11 -28 70 -56 131 -62
106 -11 177 39 291 203 28 42 52 74 52 71 0 -3 -18 -37 -40 -74 -49 -84 -54
-141 -15 -179 13 -14 32 -26 42 -26 52 -4 78 2 108 26 l34 25 26 -22 c36 -31
53 -36 112 -34 128 6 186 106 134 229 -19 45 -19 45 0 63 31 28 22 83 -16 105
-26 15 -35 16 -66 5 -42 -15 -66 -37 -132 -123 -59 -77 -68 -83 -51 -35 21 64
8 102 -52 142 -24 17 -44 35 -44 39 0 12 -47 31 -75 31 -17 0 -25 -6 -25 -17
0 -10 -11 -40 -23 -67 l-23 -50 -13 31 c-34 83 -188 79 -278 -6 -23 -22 -34
-27 -31 -14 14 52 -93 105 -162 81 -20 -6 -15 1 21 34 25 24 59 53 74 66 25
21 26 24 12 45 -16 25 -81 50 -108 42 -11 -4 -32 -17 -48 -31 -24 -20 -31 -22
-38 -11 -12 21 -61 49 -73 42 -5 -3 -10 -2 -10 4 0 6 12 14 28 17 62 15 163
81 218 141 12 13 24 23 27 23 3 0 13 -15 22 -33 16 -34 78 -77 110 -77 9 0 31
-15 48 -34 49 -52 110 -63 222 -40 80 17 201 84 279 155 10 10 39 23 65 29 95
23 203 104 254 191 27 45 60 129 51 129 -2 0 -37 -9 -77 -20 -53 -14 -77 -27
-92 -46 -11 -15 -30 -39 -43 -53 l-22 -26 6 30 c13 55 8 130 -11 162 -70 118
-294 87 -468 -67 -20 -18 -37 -29 -37 -25 0 20 67 129 101 165 49 52 58 81 30
109 -12 12 -33 21 -48 21 -24 0 -25 1 -11 18 91 103 57 237 -69 273 -44 12
-137 14 -182 5 -191 -41 -363 -143 -530 -315 -40 -42 -87 -95 -104 -119 l-31
-43 -12 41 c-16 53 -30 69 -80 91 -52 24 -149 19 -222 -10 -93 -37 -205 -123
-270 -209 -52 -69 -45 26 10 128 17 32 48 77 70 99 52 55 59 92 23 115 -15 10
-38 16 -50 13 -23 -4 -23 -4 5 32 70 90 58 188 -29 239 -39 23 -58 27 -131 28
-47 1 -107 -4 -135 -11z m15 -204 c-6 -12 -24 -24 -41 -28 -44 -9 -70 -46 -58
-86 9 -34 32 -57 58 -58 11 0 10 -3 -4 -8 -11 -5 -38 -7 -59 -5 -32 2 -43 -3
-60 -24 -35 -43 -45 -65 -46 -99 0 -50 27 -71 86 -66 l49 4 -55 -52 c-54 -51
-148 -103 -202 -113 -18 -3 -36 2 -50 14 -19 15 -22 28 -22 78 0 50 6 73 37
135 72 140 216 289 319 329 48 18 66 11 48 -21z m1460 -65 c0 -16 -26 -45 -41
-47 -5 -1 -13 -3 -19 -4 -5 -1 -14 -3 -19 -4 -5 0 -15 -15 -24 -32 -20 -42 -6
-82 36 -103 l32 -16 -30 -1 c-71 -3 -81 -5 -96 -14 -29 -17 -59 -78 -59 -118
0 -33 4 -40 31 -51 20 -9 44 -11 65 -6 19 4 34 6 34 4 0 -16 -116 -110 -165
-134 -87 -42 -112 -44 -142 -14 -23 23 -25 30 -19 82 17 158 212 404 363 458
49 17 53 17 53 0z m-849 -328 c1 -4 2 -14 3 -20 4 -22 -9 -38 -45 -56 -19 -9
-45 -34 -58 -54 -26 -40 -48 -48 -57 -23 -13 32 30 99 91 142 29 21 64 27 66
11z m1374 -99 c14 -22 -6 -58 -41 -75 -20 -9 -47 -35 -60 -56 -30 -47 -61 -49
-56 -3 8 67 133 174 157 134z m-1283 -329 c37 -82 128 -126 242 -117 36 3 71
9 78 13 7 4 -16 -19 -51 -51 -47 -44 -70 -59 -88 -57 -41 6 -92 -17 -99 -44
-7 -26 10 -54 32 -54 19 0 18 -5 -13 -58 -26 -43 -28 -45 -31 -22 -9 74 -50
110 -130 111 -87 2 -180 -58 -185 -120 0 -11 -14 -34 -29 -53 -28 -33 -28 -33
-18 -5 21 58 13 96 -27 133 -21 19 -47 43 -59 54 -21 20 -66 40 -89 40 -8 0
-18 -12 -21 -27 -15 -59 -95 -203 -112 -203 -5 0 -18 11 -31 24 l-22 23 28 12
c102 42 151 163 103 256 -20 40 -16 53 20 56 8 1 25 3 38 4 33 3 55 -21 42
-46 -10 -17 -7 -19 24 -19 47 0 81 17 95 47 14 31 14 42 -3 74 -13 26 -13 27
26 38 68 21 167 83 232 146 l21 20 5 -70 c3 -38 13 -86 22 -105z m-750 -108
c3 -4 -36 -51 -87 -106 l-93 -98 -36 12 c-48 15 -57 35 -41 84 19 53 53 85
114 106 49 16 127 17 143 2z m78 -143 c-10 -34 -23 -53 -60 -86 -40 -36 -36
-17 11 52 49 71 62 81 49 34z m1003 -65 c3 -4 -4 -21 -16 -38 -13 -17 -29 -43
-36 -58 -8 -14 -31 -44 -53 -65 l-40 -38 16 37 c15 37 64 115 94 151 16 18 25
21 35 11z m-391 -96 c-5 -20 -5 -20 -18 3 -14 28 -8 45 11 29 7 -6 10 -20 7
-32z m729 -21 c-32 -47 -68 -83 -76 -75 -14 13 73 113 102 118 1 0 -11 -19
-26 -43z m195 8 c-10 -8 -23 -12 -29 -8 -5 3 1 12 14 19 30 15 41 7 15 -11z
m-1641 -45 c26 -28 23 -75 -5 -105 -18 -19 -34 -25 -66 -25 -58 0 -62 23 -15
94 39 60 57 68 86 36z"/>
</g>
</svg>
